<?xml version="1.0" standalone="no"?>
<!DOCTYPE svg PUBLIC "-//W3C//DTD SVG 20010904//EN"
 "http://www.w3.org/TR/2001/REC-SVG-20010904/DTD/svg10.dtd">
<svg version="1.0" xmlns="http://www.w3.org/2000/svg"
 width="512.000000pt" height="512.000000pt" viewBox="0 0 512.000000 512.000000"
 preserveAspectRatio="xMidYMid meet">
<metadata>
Created by potrace 1.16, written by Peter Selinger 2001-2019
</metadata>
<g transform="translate(0.000000,512.000000) scale(0.100000,-0.100000)"
fill="#ffffff" stroke="none">
<path d="M2255 4908 c-348 -39 -749 -205 -1060 -438 -335 -252 -647 -686 -785
-1093 -200 -590 -197 -1125 6 -1642 47 -119 171 -355 248 -475 216 -331 595
-650 980 -823 697 -312 1504 -244 2139 180 321 214 561 483 762 851 338 619
360 1400 59 2062 -341 748 -998 1259 -1769 1375 -111 17 -445 19 -580 3z m620
-28 c231 -39 392 -93 618 -206 215 -108 370 -218 550 -393 152 -148 237 -248
342 -406 286 -428 428 -954 386 -1425 -38 -409 -163 -772 -384 -1109 -547
-831 -1607 -1193 -2552 -869 -333 114 -707 357 -976 634 -252 260 -445 631
-533 1024 -123 553 14 1229 354 1750 268 409 604 692 1029 865 225 92 413 137
661 159 106 9 389 -4 505 -24z"/>
<path d="M2197 4825 c-717 -98 -1336 -587 -1647 -1300 -202 -465 -254 -1061
-130 -1490 31 -105 103 -295 113 -295 4 0 6 4 3 9 -3 5 1 23 10 40 16 32 34
49 34 32 0 -5 -6 -12 -12 -14 -9 -4 -7 -6 3 -6 15 -1 56 -85 51 -103 -1 -5 2
-8 8 -8 5 0 7 -7 4 -15 -4 -8 -1 -15 6 -15 6 0 9 -4 6 -9 -4 -5 -2 -11 2 -13
5 -1 30 -41 58 -87 70 -119 193 -278 291 -379 l84 -87 -95 113 c-193 230 -331
466 -412 706 -21 63 -42 112 -46 110 -13 -8 -35 54 -58 162 -27 126 -37 388
-21 534 15 134 71 381 122 535 186 556 590 1022 1104 1270 215 103 362 151
585 189 125 22 133 25 105 36 -57 22 -323 -31 -520 -105 -304 -113 -555 -275
-775 -502 -220 -224 -374 -463 -486 -750 -42 -105 -113 -356 -115 -406 -1 -16
-3 -17 -6 -5 -12 46 94 399 167 556 252 539 699 948 1239 1136 266 93 441 121
756 121 275 0 321 -7 549 -82 468 -155 849 -454 1129 -883 62 -96 182 -332
217 -429 13 -36 25 -60 27 -54 6 16 -62 185 -127 314 -181 360 -474 674 -823
883 -258 154 -597 264 -906 296 -137 13 -373 11 -494 -5z m-1740 -1897 c-3 -8
-6 -5 -6 6 -1 11 2 17 5 13 3 -3 4 -12 1 -19z"/>
<path d="M3255 4586 c124 -51 284 -136 398 -210 15 -10 27 -16 27 -13 0 9
-183 124 -257 161 -84 42 -218 96 -236 96 -6 -1 24 -16 68 -34z"/>
<path d="M2364 4429 c-41 -20 -57 -65 -51 -138 9 -95 30 -111 141 -111 67 0
88 4 107 19 23 19 24 19 48 0 33 -26 73 -24 105 6 24 22 26 30 26 109 0 105
-15 126 -91 126 -40 0 -51 -4 -73 -31 -21 -24 -27 -27 -31 -15 -3 9 -7 23 -10
31 -3 12 -21 15 -77 14 -40 0 -82 -5 -94 -10z m174 -56 c17 -31 24 -101 13
-120 -6 -10 -11 -12 -11 -5 0 17 -25 15 -40 -3 -10 -12 -28 -15 -69 -13 l-56
3 -3 69 c-2 49 1 72 10 77 7 5 43 9 80 9 54 0 69 -3 76 -17z m150 -50 c3 -57
1 -63 -22 -78 -48 -31 -60 -18 -57 60 1 38 5 73 8 78 3 4 19 7 36 5 32 -3 32
-3 35 -65z"/>
<path d="M1726 4308 c-51 -78 -80 -239 -79 -440 0 -93 -3 -148 -10 -148 -6 0
-8 -30 -5 -79 4 -72 9 -85 53 -161 l48 -82 -22 -97 c-25 -109 -48 -185 -86
-286 -36 -93 -45 -247 -21 -349 13 -56 14 -71 4 -78 -10 -6 -9 -8 4 -8 10 0
19 -11 23 -31 4 -17 5 -31 3 -33 -1 -1 -27 -13 -56 -26 -29 -13 -55 -28 -58
-32 -3 -4 19 4 48 17 64 30 75 31 83 5 4 -13 15 -20 31 -20 21 0 30 -10 55
-67 16 -37 46 -120 65 -185 19 -65 45 -147 58 -183 44 -115 158 -328 202 -375
23 -25 50 -65 60 -90 25 -63 51 -103 125 -190 35 -42 76 -92 91 -110 23 -30
27 -32 28 -15 1 44 -34 146 -95 282 -35 78 -84 206 -107 285 -43 142 -43 143
-50 98 -3 -25 -7 -82 -7 -128 -1 -54 -5 -81 -11 -77 -19 12 -61 105 -100 223
-22 65 -40 109 -40 99 0 -25 39 -176 52 -200 5 -10 8 -21 5 -23 -6 -6 -87 186
-117 276 -12 36 -31 105 -41 153 -11 49 -34 116 -52 150 -17 34 -33 65 -35 68
-1 3 28 -9 65 -28 65 -33 68 -36 84 -90 21 -65 60 -110 104 -119 25 -4 34 -13
44 -40 27 -73 103 -117 208 -118 l71 -1 7 -40 c3 -22 4 -110 1 -195 l-6 -155
19 105 c11 58 23 137 26 175 3 39 13 88 21 110 13 39 16 41 50 37 46 -6 166
26 158 42 -3 6 4 0 15 -14 31 -37 54 -124 47 -174 -9 -56 -52 -126 -132 -216
-101 -112 -135 -202 -133 -354 l0 -71 20 75 c24 93 69 183 117 233 43 44 130
103 139 93 4 -3 -10 -43 -30 -89 -39 -87 -19 -75 28 17 28 56 32 84 11 92 -20
8 -91 -31 -144 -79 l-47 -42 55 63 c77 89 98 119 128 182 35 75 36 164 3 235
-33 69 -33 71 1 97 32 24 108 120 108 136 0 5 48 18 106 29 139 28 217 67 310
156 113 106 164 226 164 382 0 136 -35 252 -116 385 l-27 45 38 -35 c45 -42
129 -145 178 -220 138 -208 124 -564 -30 -824 -55 -93 -170 -214 -260 -275
-89 -59 -99 -61 -72 -17 44 76 -31 20 -87 -64 -22 -34 -34 -46 -30 -30 20 79
14 80 -25 5 -39 -75 -147 -221 -228 -309 l-36 -39 33 19 c18 10 74 57 125 103
144 132 204 179 324 257 129 84 219 170 283 269 l45 69 3 -41 c6 -82 -55 -255
-131 -372 l-42 -65 -8 54 c-9 64 -17 77 -18 29 0 -19 -11 -56 -24 -84 l-23
-50 -2 35 c-1 19 -5 44 -9 55 -7 16 -9 13 -15 -20 -5 -30 -30 -69 -95 -152
l-88 -111 4 91 4 92 -31 -114 c-17 -63 -33 -117 -37 -120 -3 -4 -3 5 0 19 3
14 9 50 12 80 8 65 2 60 -52 -45 -42 -83 -110 -181 -148 -213 l-27 -23 7 63
c4 36 2 74 -4 88 -7 18 -10 20 -10 7 -2 -38 -67 -145 -130 -213 -81 -86 -122
-159 -131 -233 -6 -43 -8 -23 -10 89 -2 153 -9 153 -30 1 -5 -41 -11 -76 -13
-78 -6 -5 -188 107 -248 153 -117 90 -188 197 -211 319 -15 78 -25 61 -28 -45
-2 -78 -14 -58 -24 40 -6 59 2 149 18 205 4 11 -4 0 -16 -25 -19 -37 -23 -61
-23 -142 0 -53 -3 -94 -7 -90 -17 17 -68 134 -89 202 l-22 75 -16 -47 c-9 -26
-19 -50 -23 -53 -17 -17 -48 129 -48 224 0 100 13 143 62 214 l21 32 -31 -29
c-17 -16 -41 -48 -52 -70 -11 -23 -20 -33 -20 -24 0 17 54 170 84 241 39 89
-36 7 -80 -88 -76 -165 -83 -318 -24 -515 23 -79 33 -137 40 -236 10 -151 2
-202 -42 -266 -11 -16 -17 -32 -13 -38 3 -5 54 -46 113 -90 220 -165 484 -260
725 -260 361 0 798 192 1109 488 108 103 161 176 224 305 46 95 47 99 34 140
-15 51 -54 130 -128 257 -62 108 -102 206 -102 252 0 17 16 81 36 142 31 92
38 129 42 221 5 125 -9 210 -40 250 -27 35 -31 27 -13 -25 47 -132 40 -244
-26 -418 -22 -58 -39 -120 -39 -143 0 -58 50 -202 121 -349 91 -187 92 -191
70 -250 -116 -306 -653 -682 -1113 -780 -244 -52 -420 -34 -633 64 -51 24
-293 166 -344 202 -2 2 6 15 16 31 41 59 48 93 45 213 -2 108 8 191 30 234 9
16 14 10 34 -40 27 -66 79 -146 124 -189 26 -25 30 -26 30 -10 0 14 5 9 18
-15 11 -18 25 -36 33 -39 10 -3 8 4 -5 25 -10 16 1 7 25 -21 94 -110 176 -183
269 -238 53 -30 116 -74 142 -96 25 -23 49 -41 52 -41 4 0 4 17 1 38 -3 23 -2
30 3 18 7 -15 14 -7 46 47 52 88 168 216 176 193 8 -24 166 136 207 211 18 32
33 54 33 50 0 -14 -31 -70 -66 -119 -78 -110 26 -21 154 132 57 69 114 140
125 158 21 35 36 38 17 3 -18 -35 5 -24 64 30 71 65 116 126 166 228 73 148
94 222 95 346 2 92 7 122 29 185 36 99 59 256 51 340 -7 75 -40 221 -56 253
-6 12 25 -14 70 -58 l82 -80 -31 -5 c-17 -3 -31 -9 -30 -15 0 -5 22 -39 49
-75 26 -36 55 -78 64 -95 9 -16 16 -26 17 -21 0 5 -14 34 -31 65 -28 52 -29
54 -5 26 93 -109 111 -270 39 -355 -14 -17 -23 -33 -21 -36 13 -13 59 23 78
60 11 23 20 36 20 31 0 -35 -37 -141 -71 -205 -50 -93 -48 -115 18 -208 l47
-67 -39 29 -40 29 26 -29 c14 -16 39 -47 55 -69 27 -38 27 -39 4 -21 -14 11
-40 36 -57 55 -32 35 -33 35 -33 11 0 -38 41 -101 84 -131 41 -27 134 -65 141
-57 6 6 -121 238 -168 308 -35 52 -36 55 -20 79 89 136 119 289 79 408 -20 59
-77 152 -131 212 l-37 41 26 0 c14 0 26 3 26 8 0 4 -41 48 -91 97 -156 154
-229 249 -303 393 -36 72 -66 140 -66 151 0 11 18 49 41 83 40 61 41 65 35
126 -3 41 0 83 9 120 32 120 5 328 -57 452 -59 117 -105 118 -207 7 -79 -85
-135 -141 -223 -222 -62 -57 -68 -60 -99 -52 -61 15 -431 20 -519 8 -57 -9
-85 -9 -94 -2 -9 7 -16 7 -23 0 -9 -9 -28 3 -74 42 -129 111 -154 136 -228
229 -85 105 -116 122 -145 78z m94 -97 c21 -32 81 -95 134 -139 52 -45 109
-100 128 -123 18 -22 45 -55 60 -73 l27 -31 1 38 c0 37 8 45 26 27 5 -5 24 -6
49 0 43 10 245 26 245 19 0 -2 -7 -29 -15 -59 -19 -70 -20 -124 -1 -65 7 22
23 59 35 83 21 41 22 42 74 42 53 0 211 -17 234 -25 9 -3 10 -11 3 -29 -22
-60 39 -17 73 50 9 16 46 56 84 87 37 32 104 98 147 147 103 117 137 127 175
52 38 -75 64 -200 65 -317 1 -96 -2 -115 -21 -152 -27 -50 -32 -93 -8 -73 13
11 15 7 15 -24 0 -20 -6 -49 -14 -64 -16 -31 -76 -91 -76 -76 0 5 -4 4 -8 -3
-5 -8 -36 12 -98 65 -167 143 -180 146 -39 10 81 -78 145 -148 152 -167 10
-29 2 -44 -12 -21 -3 6 -11 10 -17 10 -6 0 8 -20 31 -45 47 -51 52 -65 16 -41
-14 9 -31 14 -37 10 -6 -4 -8 -3 -4 4 3 6 2 13 -4 17 -6 4 -32 39 -59 78 -27
40 -67 92 -90 117 l-42 45 44 -65 c87 -131 247 -459 247 -506 0 -1 -29 28 -64
64 -36 37 -67 64 -70 61 -3 -3 12 -30 35 -60 49 -65 84 -132 94 -179 7 -33 6
-32 -20 14 -23 43 -113 166 -121 166 -2 0 17 -39 42 -87 65 -128 79 -240 39
-328 l-13 -30 -2 45 c-1 25 -5 54 -9 65 -7 16 -10 11 -16 -25 -14 -86 -44
-146 -94 -193 -60 -56 -86 -70 -194 -100 l-87 -24 26 41 c42 67 62 118 68 171
l6 50 -23 -65 c-23 -67 -87 -169 -127 -205 -17 -15 -14 -7 12 35 44 69 64 124
83 224 18 97 29 111 50 65 l16 -34 -6 34 c-9 57 -38 77 -67 47 -8 -7 -22 -51
-32 -97 -21 -97 -72 -203 -148 -304 -107 -141 -181 -163 -350 -101 -127 46
-138 52 -138 80 0 20 9 27 55 42 68 21 144 98 169 170 23 67 20 82 -17 119
-37 37 -82 46 -219 48 -81 1 -122 -15 -157 -59 -26 -34 -27 -74 -1 -151 22
-64 43 -89 100 -120 23 -13 36 -28 38 -45 3 -22 -3 -28 -39 -42 -24 -10 -65
-20 -91 -23 -55 -7 -81 9 -104 64 -20 45 -18 47 18 22 21 -15 49 -24 87 -26
l56 -3 -68 18 c-43 12 -78 29 -95 46 -26 25 -27 31 -27 124 0 124 17 173 106
307 64 95 109 193 109 235 0 10 14 42 30 73 23 44 30 69 29 109 l-1 53 -12
-55 c-6 -30 -23 -73 -36 -95 l-25 -40 -7 60 c-11 87 -25 120 -64 155 -51 44
-67 37 -22 -10 42 -45 52 -78 19 -60 -26 13 -68 13 -131 -2 -41 -9 -56 -9 -72
1 -19 12 -20 12 -5 -9 8 -12 24 -28 35 -36 11 -8 23 -27 27 -43 11 -51 48 -75
117 -77 38 -1 64 -7 70 -16 20 -30 -24 -136 -91 -217 -20 -25 -47 -60 -58 -76
-28 -41 -63 -146 -63 -189 0 -52 -15 -51 -38 2 -27 59 -29 30 -3 -38 l19 -50
-26 -1 -27 -2 28 -4 c26 -4 52 -34 45 -53 -2 -6 -32 5 -67 23 -62 31 -63 32
-35 39 22 6 19 6 -13 4 -37 -4 -43 -1 -52 23 -15 35 -31 125 -31 169 0 60 -19
23 -22 -43 l-3 -60 -14 75 c-13 72 -8 157 15 226 5 16 4 16 -5 4 -22 -31 -11
22 28 139 21 64 46 157 55 206 28 150 102 283 218 390 46 43 54 54 29 39 -55
-31 -139 -112 -188 -182 -43 -59 -48 -63 -60 -46 -17 24 -16 34 7 64 11 14 20
32 20 41 0 9 10 24 21 35 12 10 47 52 78 93 95 125 88 111 61 134 l-25 20 38
-5 c47 -5 44 9 -9 39 l-39 23 34 0 35 0 -34 35 -34 35 49 -14 c27 -9 51 -14
52 -12 8 7 -51 68 -93 97 -57 39 -56 28 4 -27 30 -29 38 -41 22 -33 -14 7 -50
37 -81 68 l-56 56 18 -50 c18 -50 18 -50 -1 -26 -28 32 -27 2 1 -33 22 -28 12
-34 -24 -15 l-21 12 18 -29 c11 -16 25 -38 33 -49 7 -11 13 -23 13 -26 0 -16
-33 -1 -51 22 -25 33 -24 20 6 -47 33 -74 28 -86 -13 -33 -17 24 -32 41 -32
38 0 -2 6 -36 14 -76 12 -63 12 -71 -1 -66 -12 5 -14 1 -8 -18 4 -13 11 -28
17 -34 9 -10 13 -11 43 -14 9 -1 -3 -17 -30 -42 -34 -32 -43 -45 -34 -55 7 -9
7 -19 -1 -35 l-12 -21 -20 20 c-20 19 -53 132 -39 132 3 0 17 -7 29 -16 22
-15 22 -15 22 43 0 32 -5 65 -10 73 -7 11 -10 3 -10 -30 0 -33 -3 -41 -10 -30
-19 29 -12 284 11 393 22 112 53 192 69 182 5 -3 28 -32 50 -64z m110 -426 c0
-2 -10 -10 -22 -16 -21 -11 -22 -11 -9 4 13 16 31 23 31 12z m115 -535 c3 -5
-2 -10 -13 -10 -27 0 -33 -10 -21 -32 13 -25 4 -35 -16 -18 -15 13 -20 51 -8
63 10 11 51 8 58 -3z m-81 -100 c6 -9 1 -5 -11 8 -13 13 -23 28 -23 35 0 7 6
3 12 -8 6 -11 16 -27 22 -35z m357 -470 c29 -6 64 -17 77 -26 44 -29 12 -37
-153 -38 -137 -1 -155 1 -155 15 0 48 111 72 231 49z m-204 -156 c-3 -3 -12
-4 -19 -1 -8 3 -5 6 6 6 11 1 17 -2 13 -5z m43 -29 c-7 -8 -19 -15 -27 -15
-11 0 -9 7 8 25 25 25 41 16 19 -10z m169 -5 c19 0 22 -3 13 -12 -18 -18 -62
6 -61 34 l0 23 11 -22 c7 -15 20 -23 37 -23z m-34 -261 c71 -19 125 -41 119
-50 -3 -5 -23 -18 -44 -29 -49 -25 -147 -27 -193 -4 -56 28 -85 78 -49 87 33
9 127 7 167 -4z m-598 -381 c-2 -13 -4 -3 -4 22 0 25 2 35 4 23 2 -13 2 -33 0
-45z m503 -308 c12 -25 31 -57 42 -72 11 -16 17 -28 14 -28 -23 0 -117 195
-115 239 0 9 8 -9 18 -39 10 -30 28 -75 41 -100z m-450 1 c0 -40 -17 -11 -23
39 -6 45 -6 45 8 15 8 -16 14 -41 15 -54z m227 -213 c-3 -8 -6 -5 -6 6 -1 11
2 17 5 13 3 -3 4 -12 1 -19z"/>
<path d="M3200 4111 c0 -14 -82 -102 -104 -112 -15 -6 -8 -7 22 -3 23 3 42 3
42 1 0 -3 -23 -19 -50 -36 -52 -32 -61 -58 -14 -41 38 15 39 13 5 -25 -36 -41
-38 -49 -12 -40 17 5 17 3 -3 -38 -18 -37 -22 -40 -29 -24 -4 10 -5 22 -2 26
2 4 -2 8 -10 8 -19 0 -19 -25 1 -73 l16 -39 -49 45 c-65 59 -91 99 -72 111 8
6 32 7 54 4 32 -5 37 -3 28 6 -11 11 -46 14 -99 7 -19 -2 -20 -6 -13 -32 10
-36 58 -86 201 -211 l106 -94 36 46 c22 29 36 57 36 75 0 40 -11 30 -44 -40
l-28 -59 -24 21 c-13 12 -39 34 -59 49 -38 31 -49 58 -13 33 30 -21 58 -20 58
1 0 10 20 47 44 83 24 36 47 76 51 90 6 22 4 21 -23 -10 -43 -51 -47 -33 -7
31 19 30 35 62 35 73 0 16 -3 15 -27 -8 -33 -33 -39 -28 -17 15 33 65 37 108
7 78 -8 -8 -10 3 -7 38 4 38 2 43 -5 26 -14 -31 -23 -29 -15 2 4 15 2 25 -5
25 -6 0 -11 -4 -11 -9z m-91 -323 c-30 -44 -29 -43 -29 -31 0 11 38 63 46 63
3 0 -5 -15 -17 -32z"/>
<path d="M3303 4060 c0 -25 2 -35 4 -22 2 12 2 32 0 45 -2 12 -4 2 -4 -23z"/>
<path d="M3054 4010 c-55 -49 -90 -88 -83 -95 2 -2 38 30 79 71 86 85 88 97 4
24z"/>
<path d="M3323 3857 c-7 -24 -33 -74 -58 -111 -51 -74 -53 -96 -4 -50 41 39
67 90 75 153 8 62 2 66 -13 8z"/>
<path d="M2082 3859 c-43 -22 -126 -107 -166 -171 -15 -25 -1 -15 59 40 43 41
96 83 117 95 21 12 38 30 38 40 0 21 4 21 -48 -4z"/>
<path d="M2344 3839 c14 -11 35 -37 46 -57 12 -24 19 -30 20 -19 0 38 -47 96
-79 97 -7 0 -2 -9 13 -21z"/>
<path d="M2584 3841 c-32 -20 -94 -89 -94 -106 0 -5 7 1 16 14 9 12 43 43 76
67 60 44 61 61 2 25z"/>
<path d="M2451 3744 c0 -11 3 -14 6 -6 3 7 2 16 -1 19 -3 4 -6 -2 -5 -13z"/>
<path d="M2940 3736 c0 -2 8 -10 18 -17 15 -13 16 -12 3 4 -13 16 -21 21 -21
13z"/>
<path d="M2357 3659 c24 -46 28 -65 28 -139 0 -47 -3 -125 -7 -175 l-7 -90 13
90 c20 138 48 198 125 277 37 37 62 68 56 68 -17 0 -68 -35 -104 -71 -19 -19
-36 -29 -38 -24 -11 32 -51 90 -71 103 -22 14 -22 13 5 -39z"/>
<path d="M2545 3488 c-36 -19 -67 -52 -88 -93 -24 -47 -27 -144 -5 -215 l14
-45 -4 83 c-6 114 9 163 73 229 49 51 53 65 10 41z"/>
<path d="M2188 3465 c45 -38 75 -116 80 -215 6 -100 19 -76 21 38 1 54 -4 83
-19 111 -21 42 -73 91 -97 91 -9 0 -4 -9 15 -25z"/>
<path d="M2735 3345 c-53 -19 -78 -50 -105 -129 -12 -36 -25 -66 -29 -66 -17
0 -43 41 -55 87 l-13 48 -7 -48 c-6 -41 -4 -56 17 -95 25 -48 44 -112 32 -112
-3 0 -14 19 -25 43 -10 23 -19 35 -19 27 -2 -28 48 -215 68 -260 l21 -45 -8
55 c-13 102 -9 166 14 197 l22 28 104 -3 c101 -3 106 -2 136 23 17 14 41 43
52 63 20 36 22 37 70 34 51 -4 120 13 120 29 0 11 1 11 -95 14 -51 2 -101 10
-139 24 -71 25 -126 27 -172 5 -19 -9 -37 -15 -39 -12 -10 10 43 70 80 88 46
23 29 26 -30 5z m100 -87 c14 -6 25 -14 25 -18 0 -12 -34 -18 -55 -9 -11 4
-33 8 -49 8 -24 1 -27 3 -16 16 15 18 59 19 95 3z m-75 -54 c0 -17 -22 -14
-28 4 -2 7 3 12 12 12 9 0 16 -7 16 -16z m107 -6 c-3 -8 -6 -5 -6 6 -1 11 2
17 5 13 3 -3 4 -12 1 -19z m63 -7 c0 -20 -77 -91 -105 -97 -29 -5 -28 -5 10
20 22 13 49 39 60 55 19 30 35 40 35 22z"/>
<path d="M2383 3165 c0 -44 2 -61 4 -37 2 23 2 59 0 80 -2 20 -4 1 -4 -43z"/>
<path d="M2371 3054 c0 -11 3 -14 6 -6 3 7 2 16 -1 19 -3 4 -6 -2 -5 -13z"/>
<path d="M2361 3014 c0 -11 3 -14 6 -6 3 7 2 16 -1 19 -3 4 -6 -2 -5 -13z"/>
<path d="M3179 2908 c4 -113 -18 -201 -66 -267 l-34 -46 44 46 c58 63 81 138
75 246 -7 115 -24 133 -19 21z"/>
<path d="M1731 2938 c-30 -96 -20 -236 22 -310 30 -55 38 -46 14 15 -18 44
-22 73 -22 190 0 75 -1 137 -2 137 -1 0 -6 -15 -12 -32z"/>
<path d="M3093 2546 c-18 -13 -69 -42 -113 -66 -44 -24 -78 -45 -76 -47 11
-11 143 55 184 93 52 48 54 55 5 20z"/>
<path d="M2569 2513 c-8 -9 -36 -27 -64 -39 -36 -17 -43 -24 -27 -24 33 0 76
25 96 54 19 29 16 35 -5 9z"/>
<path d="M2670 2463 c-47 -66 -106 -110 -159 -119 -20 -3 -54 -9 -76 -14 l-40
-8 55 -1 c108 -2 162 31 253 152 16 21 32 35 38 32 5 -4 9 -1 9 4 0 6 -9 11
-19 11 -13 0 -35 -21 -61 -57z"/>
<path d="M2708 2432 c-15 -31 -25 -58 -23 -60 5 -6 57 98 53 108 -2 4 -15 -17
-30 -48z"/>
<path d="M1985 2445 c17 -14 38 -25 47 -25 9 0 23 -3 32 -6 9 -3 16 -1 16 5 0
6 -8 11 -18 11 -10 0 -35 9 -57 20 -51 26 -57 25 -20 -5z"/>
<path d="M2557 2428 c-21 -11 -56 -22 -77 -25 -22 -3 -40 -10 -40 -14 0 -22
113 7 141 37 26 28 26 28 -24 2z"/>
<path d="M2358 2333 c6 -2 18 -2 25 0 6 3 1 5 -13 5 -14 0 -19 -2 -12 -5z"/>
<path d="M4157 3875 c239 -331 346 -621 419 -1140 3 -27 9 -45 11 -38 7 19
-24 230 -52 358 -38 169 -105 367 -169 498 -59 122 -172 299 -230 362 -26 28
-19 16 21 -40z"/>
<path d="M4541 3104 c0 -11 3 -14 6 -6 3 7 2 16 -1 19 -3 4 -6 -2 -5 -13z"/>
<path d="M4551 3064 c0 -11 3 -14 6 -6 3 7 2 16 -1 19 -3 4 -6 -2 -5 -13z"/>
<path d="M4562 3030 c-1 -8 5 -42 12 -75 8 -33 14 -49 14 -35 0 28 -25 133
-26 110z"/>
<path d="M4592 2855 c0 -16 2 -22 5 -12 2 9 2 23 0 30 -3 6 -5 -1 -5 -18z"/>
<path d="M4602 2780 c0 -19 2 -27 5 -17 2 9 2 25 0 35 -3 9 -5 1 -5 -18z"/>
<path d="M4612 2660 c0 -14 2 -19 5 -12 2 6 2 18 0 25 -3 6 -5 1 -5 -13z"/>
<path d="M3450 2546 c0 -10 -14 -59 -31 -110 -34 -102 -95 -207 -167 -287 -26
-30 -38 -47 -25 -41 40 22 135 137 168 207 33 67 74 230 61 242 -3 4 -6 -2 -6
-11z"/>
<path d="M1951 2064 c0 -11 3 -14 6 -6 3 7 2 16 -1 19 -3 4 -6 -2 -5 -13z"/>
<path d="M2995 2041 c-65 -39 -155 -161 -155 -208 0 -10 20 11 44 47 24 36 67
91 96 123 28 31 50 57 49 57 -2 0 -17 -8 -34 -19z"/>
<path d="M2342 1640 c0 -14 2 -19 5 -12 2 6 2 18 0 25 -3 6 -5 1 -5 -13z"/>
<path d="M1320 866 c0 -2 8 -10 18 -17 15 -13 16 -12 3 4 -13 16 -21 21 -21
13z"/>
<path d="M1366 829 c23 -37 332 -215 466 -268 87 -34 247 -78 322 -87 83 -10
42 11 -58 30 -195 38 -415 131 -625 264 -62 40 -109 67 -105 61z"/>
</g>
</svg>