<svg version="1.1" id="Layer_1" xmlns="http://www.w3.org/2000/svg" xmlns:xlink="http://www.w3.org/1999/xlink" x="0px" y="0px"
	 width="100%" viewBox="0 0 256 256" enable-background="new 0 0 256 256" xml:space="preserve">
<path fill="#E73937" opacity="1.000000" stroke="none" 
	d="
M257.000000,94.000000 
	C257.000000,148.666672 257.000000,202.833328 257.000000,257.000000 
	C171.666672,257.000000 86.333336,257.000000 1.000000,257.000000 
	C1.000000,171.666672 1.000000,86.333336 1.000000,1.000000 
	C86.333336,1.000000 171.666672,1.000000 257.000000,1.000000 
	C257.000000,31.833334 257.000000,62.666668 257.000000,94.000000 
M49.794605,158.785248 
	C49.794605,158.785248 49.776855,158.716095 49.136181,159.332977 
	C49.075069,180.517654 49.004719,201.702316 48.995743,222.887009 
	C48.995464,223.548874 49.629700,224.210999 50.750687,225.151093 
	C52.547905,224.879044 54.345123,224.606995 56.955936,224.305176 
	C58.304688,224.203339 59.653435,224.101501 61.763130,224.065399 
	C62.252972,223.078766 62.742809,222.092133 63.693821,220.737778 
	C64.504089,221.102737 65.419136,221.329697 66.108841,221.853409 
	C75.807610,229.218109 88.691078,227.654556 96.376190,218.172058 
	C101.120056,212.318680 102.487892,205.684525 102.241249,198.201492 
	C101.930107,188.761642 97.555466,182.028519 89.957993,177.287720 
	C82.543411,172.661026 74.879601,172.669907 67.449074,177.706451 
	C66.540985,178.321976 65.394775,178.586182 64.572006,178.102432 
	C64.610275,172.628525 64.791031,167.149124 64.580490,161.684799 
	C64.531593,160.415955 63.173489,158.151154 62.376205,158.132599 
	C58.165874,158.034668 53.942245,158.508560 49.794605,158.785248 
M166.238937,159.322662 
	C166.199631,165.871445 166.160324,172.420212 165.975113,179.900284 
	C165.983994,191.391159 165.889862,202.883286 166.029861,214.372574 
	C166.178833,226.597580 163.634430,225.076324 177.287704,225.356659 
	C180.746033,225.427673 182.053925,224.253433 181.897781,220.738678 
	C181.666656,215.535202 181.838013,210.313828 181.838013,205.100082 
	C186.948624,210.474167 190.957825,216.120575 195.065384,221.694519 
	C195.911270,222.842346 197.120392,224.571564 198.168655,224.576294 
	C203.081421,224.598465 207.996506,224.111679 213.839615,223.749023 
	C209.818390,213.724182 201.893600,206.952454 197.134857,198.120667 
	C201.567505,190.880600 208.833389,185.616028 212.250397,177.377106 
	C202.598679,175.744537 194.426788,175.906387 189.363449,185.669250 
	C187.661560,188.950714 184.153625,191.295471 181.670792,193.141296 
	C181.692703,182.864410 181.800934,172.586182 181.638885,162.312195 
	C181.615891,160.854248 180.328934,158.205170 179.541702,158.172653 
	C175.345779,157.999329 171.122742,158.483170 166.238937,159.322662 
M180.275879,87.766357 
	C179.572723,87.356285 178.869553,86.946205 177.630951,86.101852 
	C174.735779,84.750336 171.840622,83.398827 168.857376,82.006203 
	C174.161392,76.396614 174.855072,74.306389 173.153061,69.528481 
	C171.227448,64.122887 175.082596,53.496025 179.657700,49.756958 
	C181.660904,48.119816 183.166733,45.390942 183.946442,42.864067 
	C184.888580,39.810795 184.761169,36.437786 185.201569,33.217506 
	C186.611420,22.908829 180.064285,19.509178 173.194046,22.538517 
	C167.120438,25.216597 162.477951,32.075649 158.457993,37.947521 
	C157.125595,39.893726 159.691589,44.508827 160.839615,49.482185 
	C158.604813,50.461803 155.504242,52.777061 152.352753,52.848560 
	C150.420975,52.892384 148.411194,49.496933 146.057861,47.291119 
	C148.837692,45.955532 150.411407,45.372047 151.803894,44.499378 
	C156.816513,41.357979 158.091080,33.923309 153.745728,30.390837 
	C151.390823,28.476460 151.186188,26.630281 151.038345,24.098909 
	C150.656448,17.559753 145.626801,11.724004 140.013992,10.941406 
	C132.157104,9.845916 125.034203,13.482309 123.849030,20.561319 
	C122.972992,25.793871 120.732101,29.896376 117.303627,33.986050 
	C116.916107,33.985058 116.528580,33.984066 115.739845,33.412666 
	C112.134026,30.516983 109.982628,26.974298 108.625130,22.356562 
	C106.971649,16.732004 100.391014,13.906410 94.913101,15.230076 
	C88.522339,16.774319 85.733795,20.774130 85.942116,27.900276 
	C85.990082,29.541161 85.699448,31.191942 85.040413,33.202454 
	C83.984169,34.396519 82.927925,35.590580 81.855476,36.802956 
	C75.188667,27.483652 70.237823,26.048576 64.412933,32.319679 
	C64.599266,35.375732 64.172256,38.631657 65.090439,41.449215 
	C67.545479,48.982761 70.737343,56.274033 73.285271,63.780758 
	C74.067978,66.086769 73.541786,68.805122 73.930656,71.285156 
	C74.373123,74.106964 74.343193,77.617409 76.018677,79.476906 
	C78.148849,81.841011 77.991646,83.646942 76.850952,86.715355 
	C74.096970,96.277672 71.313705,105.831688 68.600449,115.405548 
	C67.073769,120.792480 67.995857,126.078865 71.995079,129.747498 
	C79.157265,136.317642 86.465591,142.937027 94.565460,148.231384 
	C109.647461,158.089462 126.349556,162.514954 144.594574,160.354279 
	C159.276016,158.615585 167.944656,149.073044 168.237823,134.020355 
	C168.295319,131.068985 169.450424,128.139008 170.612167,124.714027 
	C174.746780,116.233200 169.272842,109.708900 165.778122,102.502350 
	C169.886246,101.052513 173.804382,99.827217 177.596954,98.291786 
	C182.452362,96.326065 183.565186,92.399574 180.275879,87.766357 
M132.639648,227.048203 
	C135.109726,226.760056 137.623520,226.673859 140.042572,226.150055 
	C152.914932,223.362778 161.712219,211.813644 160.918716,198.902542 
	C160.107178,185.697845 150.307007,175.669937 136.614960,174.033966 
	C123.975914,172.523804 111.389687,180.971375 107.882248,193.102692 
	C103.722702,207.489487 112.873993,225.110748 132.639648,227.048203 
z"/>
<path fill="#141511" opacity="1.000000" stroke="none" 
	d="
M64.358917,179.013214 
	C65.394775,178.586182 66.540985,178.321976 67.449074,177.706451 
	C74.879601,172.669907 82.543411,172.661026 89.957993,177.287720 
	C97.555466,182.028519 101.930107,188.761642 102.241249,198.201492 
	C102.487892,205.684525 101.120056,212.318680 96.376190,218.172058 
	C88.691078,227.654556 75.807610,229.218109 66.108841,221.853409 
	C65.419136,221.329697 64.504089,221.102737 63.152496,221.029785 
	C62.074837,222.214417 61.538506,223.107040 61.002182,223.999664 
	C59.653435,224.101501 58.304688,224.203339 56.241341,224.084198 
	C51.741043,222.979187 50.887650,220.479385 50.924606,216.819199 
	C51.089470,200.489304 51.035755,184.156631 50.954201,167.825500 
	C50.942829,165.548859 50.337898,163.275162 49.973824,160.619873 
	C49.885563,159.731781 49.831207,159.223938 49.776855,158.716095 
	C49.776855,158.716095 49.794605,158.785248 50.140564,158.826904 
	C50.992977,158.913620 51.499424,158.958679 52.362053,159.194305 
	C56.139435,159.585724 59.560635,159.786545 62.987270,160.456314 
	C62.997318,162.753647 62.873165,164.593338 63.032455,166.408157 
	C63.401798,170.616226 63.908127,174.812271 64.358917,179.013214 
M66.199089,191.829437 
	C65.274734,194.120789 63.939819,196.336655 63.502167,198.717468 
	C62.128380,206.190781 67.387123,213.349136 74.347336,213.897827 
	C80.046822,214.347122 84.885574,211.162567 86.671181,205.787064 
	C88.709457,199.650925 86.650543,192.338348 81.980019,189.125549 
	C77.173248,185.819031 71.912132,186.550690 66.199089,191.829437 
z"/>
<path fill="#151511" opacity="1.000000" stroke="none" 
	d="
M181.471161,194.068359 
	C184.153625,191.295471 187.661560,188.950714 189.363449,185.669250 
	C194.426788,175.906387 202.598679,175.744537 212.250397,177.377106 
	C208.833389,185.616028 201.567505,190.880600 197.134857,198.120667 
	C201.893600,206.952454 209.818390,213.724182 213.839615,223.749023 
	C207.996506,224.111679 203.081421,224.598465 198.168655,224.576294 
	C197.120392,224.571564 195.911270,222.842346 195.065384,221.694519 
	C190.957825,216.120575 186.948624,210.474167 181.838013,205.100082 
	C181.838013,210.313828 181.666656,215.535202 181.897781,220.738678 
	C182.053925,224.253433 180.746033,225.427673 177.287704,225.356659 
	C163.634430,225.076324 166.178833,226.597580 166.029861,214.372574 
	C165.889862,202.883286 165.983994,191.391159 166.222626,179.064606 
	C166.646988,172.150803 166.823807,166.072647 167.464142,159.994934 
	C169.741486,159.999146 171.555374,159.993759 173.369095,160.008362 
	C179.733582,160.059616 179.973587,160.286957 179.995193,166.778763 
	C180.019333,174.033951 179.905563,181.291489 180.070694,188.543015 
	C180.112869,190.394470 180.981979,192.227081 181.471161,194.068359 
z"/>
<path fill="#141511" opacity="1.000000" stroke="none" 
	d="
M132.200195,227.017914 
	C112.873993,225.110748 103.722702,207.489487 107.882248,193.102692 
	C111.389687,180.971375 123.975914,172.523804 136.614960,174.033966 
	C150.307007,175.669937 160.107178,185.697845 160.918716,198.902542 
	C161.712219,211.813644 152.914932,223.362778 140.042572,226.150055 
	C137.623520,226.673859 135.109726,226.760056 132.200195,227.017914 
M135.993637,187.216751 
	C134.831558,187.203857 133.649643,187.046066 132.510666,187.201965 
	C125.926178,188.103302 121.457672,194.355942 121.973190,201.847885 
	C122.463631,208.975189 127.371605,213.884155 134.044495,213.921616 
	C140.650497,213.958710 145.696198,209.045410 146.309204,201.978699 
	C146.898117,195.189835 143.754456,190.371124 135.993637,187.216751 
z"/>
<path fill="#1D1913" opacity="1.000000" stroke="none" 
	d="
M117.884895,33.985226 
	C120.732101,29.896376 122.972992,25.793871 123.849030,20.561319 
	C125.034203,13.482309 132.157104,9.845916 140.013992,10.941406 
	C145.626801,11.724004 150.656448,17.559753 151.038345,24.098909 
	C151.186188,26.630281 151.390823,28.476460 153.745728,30.390837 
	C158.091080,33.923309 156.816513,41.357979 151.803894,44.499378 
	C150.411407,45.372047 148.837692,45.955532 146.057861,47.291119 
	C148.411194,49.496933 150.420975,52.892384 152.352753,52.848560 
	C155.504242,52.777061 158.604813,50.461803 160.839615,49.482185 
	C159.691589,44.508827 157.125595,39.893726 158.457993,37.947521 
	C162.477951,32.075649 167.120438,25.216597 173.194046,22.538517 
	C180.064285,19.509178 186.611420,22.908829 185.201569,33.217506 
	C184.761169,36.437786 184.888580,39.810795 183.946442,42.864067 
	C183.166733,45.390942 181.660904,48.119816 179.657700,49.756958 
	C175.082596,53.496025 171.227448,64.122887 173.153061,69.528481 
	C174.855072,74.306389 174.161392,76.396614 168.857376,82.006203 
	C171.840622,83.398827 174.735779,84.750336 177.759369,86.876266 
	C177.674835,88.386108 177.461899,89.121521 176.917938,89.678101 
	C170.724823,87.964706 164.862747,86.430145 158.999603,84.474945 
	C158.949310,82.932037 158.900070,81.809776 159.119507,80.461975 
	C159.865173,80.090012 160.348618,79.961685 160.818161,79.794411 
	C168.465363,77.070259 168.711365,76.561829 167.012115,68.893265 
	C166.777649,67.835136 167.124969,66.586098 167.420334,65.483681 
	C168.495132,61.472107 169.662491,57.485340 170.794403,53.489063 
	C171.704010,50.277702 172.544937,47.206005 176.504639,46.106339 
	C177.613632,45.798359 178.574844,43.642891 178.918869,42.174412 
	C179.596664,39.281288 180.109192,36.273525 180.087418,33.317623 
	C180.071411,31.145344 179.096115,28.980133 178.548309,26.811769 
	C176.374695,27.518606 174.011322,27.909332 172.101501,29.055655 
	C171.025757,29.701345 170.863281,31.716785 169.986099,32.888027 
	C169.118408,34.046600 168.034134,35.352680 166.757355,35.838650 
	C162.461975,37.473545 161.813583,40.208504 165.005096,43.746727 
	C165.878281,44.714767 167.049637,46.204037 166.853989,47.216354 
	C165.681915,53.280830 156.534714,59.241055 150.743896,57.996464 
	C145.078339,56.778793 141.014053,49.463047 141.841110,44.727856 
	C145.787888,41.495235 148.478760,39.291267 151.169632,37.087299 
	C149.281464,35.005009 147.393311,32.922722 144.999420,30.282721 
	C146.653397,26.250654 147.229813,20.860228 142.190094,17.481056 
	C139.922394,15.960553 135.553757,15.627152 133.062775,16.769957 
	C126.887505,19.603039 127.774017,25.631006 128.347702,29.554869 
	C126.063843,32.681606 122.893242,35.983845 123.342201,36.585613 
	C125.399254,39.342766 128.469543,41.343956 131.681107,44.040714 
	C130.852249,50.925732 126.392220,56.153179 120.325050,56.352425 
	C110.153183,56.686474 105.772247,53.839382 104.033867,45.632263 
	C105.953552,44.252674 108.070564,42.996143 109.858803,41.376602 
	C111.921310,39.508663 113.086899,36.520741 110.277504,35.067886 
	C106.205109,32.961884 105.598633,29.673056 104.764923,25.888546 
	C103.870461,21.828281 99.833405,19.337044 96.058632,20.133053 
	C91.888313,21.012474 89.953743,23.845913 89.931335,28.042892 
	C89.922508,29.695904 89.947556,31.349092 89.517746,32.995869 
	C87.907082,32.939079 86.735863,32.888622 85.564636,32.838165 
	C85.699448,31.191942 85.990082,29.541161 85.942116,27.900276 
	C85.733795,20.774130 88.522339,16.774319 94.913101,15.230076 
	C100.391014,13.906410 106.971649,16.732004 108.625130,22.356562 
	C109.982628,26.974298 112.134026,30.516983 115.958206,34.141666 
	C116.596382,40.289383 115.704933,45.108673 109.965897,47.472626 
	C115.842133,55.153042 121.969482,54.525543 125.802979,46.006565 
	C120.124184,44.052326 117.153328,40.195854 117.884895,33.985226 
z"/>
<path fill="#181612" opacity="1.000000" stroke="none" 
	d="
M170.099304,125.199158 
	C169.450424,128.139008 168.295319,131.068985 168.237823,134.020355 
	C167.944656,149.073044 159.276016,158.615585 144.594574,160.354279 
	C126.349556,162.514954 109.647461,158.089462 94.565460,148.231384 
	C86.465591,142.937027 79.157265,136.317642 71.995079,129.747498 
	C67.995857,126.078865 67.073769,120.792480 68.600449,115.405548 
	C71.313705,105.831688 74.096970,96.277672 77.153107,86.592270 
	C77.643898,86.951019 77.832527,87.432861 78.032257,88.280663 
	C79.028694,90.387352 80.014023,92.128067 80.652290,93.979202 
	C78.197929,100.325668 76.118179,106.571198 73.976196,112.795326 
	C71.451317,120.132072 73.478500,126.174309 79.044983,131.292999 
	C92.185287,143.376251 107.208275,151.866882 124.800400,155.598557 
	C133.823929,157.512634 142.534531,158.056000 151.301727,153.860260 
	C159.873886,149.757828 165.073410,141.914322 163.757385,132.614777 
	C163.577881,131.346359 161.892563,129.691208 160.576691,129.289978 
	C155.580612,127.766579 150.449890,126.684746 144.349899,125.187561 
	C143.705704,125.603287 141.965912,126.900154 140.075012,127.915726 
	C132.616028,131.921829 123.433060,130.609848 117.931969,124.846260 
	C112.682861,119.346687 111.922935,110.915413 116.713043,103.636642 
	C119.149719,99.934006 116.559265,99.490379 114.844666,98.286369 
	C118.618652,98.541267 121.966820,98.846657 125.134033,99.444412 
	C122.647186,103.827042 119.552628,107.681732 118.242081,112.069298 
	C116.724113,117.151230 119.691208,121.161812 123.991875,124.213669 
	C128.267242,127.247566 132.376434,128.409424 136.893677,124.851151 
	C139.720001,122.624832 142.625381,120.498886 145.509140,118.317436 
	C147.821671,119.934990 150.202774,122.025116 152.936935,123.426369 
	C159.001282,126.534294 163.983383,125.405106 167.857147,120.863190 
	C168.680527,122.548409 169.389923,123.873787 170.099304,125.199158 
z"/>
<path fill="#161612" opacity="1.000000" stroke="none" 
	d="
M85.302521,33.020309 
	C86.735863,32.888622 87.907082,32.939079 89.471817,33.359303 
	C84.216553,38.688850 87.053246,42.493015 91.558594,45.963074 
	C93.117271,47.163578 94.886032,50.287663 94.331779,51.572212 
	C93.220604,54.147556 90.946854,57.182819 88.480995,57.999680 
	C84.163574,59.429897 75.138710,48.786961 76.578163,44.282898 
	C77.939545,40.023151 76.133347,37.137268 73.221001,34.690666 
	C70.524956,32.425766 68.322304,32.448448 67.913361,36.761726 
	C66.761818,35.090782 65.832329,33.451157 64.902832,31.811531 
	C70.237823,26.048576 75.188667,27.483652 81.855476,36.802956 
	C82.927925,35.590580 83.984169,34.396519 85.302521,33.020309 
z"/>
<path fill="#1F1813" opacity="1.000000" stroke="none" 
	d="
M170.355743,124.956589 
	C169.389923,123.873787 168.680527,122.548409 167.852539,120.497307 
	C165.961258,115.221062 164.332367,110.604652 162.301254,106.172577 
	C161.866348,105.223579 159.936035,104.389420 158.760651,104.469643 
	C156.355286,104.633835 153.978165,105.391983 151.618881,106.016808 
	C145.271088,107.697968 142.101440,106.138344 138.941315,99.273430 
	C139.999268,97.600731 140.975693,96.301765 142.095215,95.330307 
	C143.078827,97.246574 143.605957,99.168755 144.845093,100.333397 
	C146.171860,101.580406 148.427048,103.137016 149.829712,102.783539 
	C156.238785,101.168350 162.490799,98.930016 169.075287,96.958694 
	C170.178894,96.601440 171.006454,96.201088 171.860168,95.830322 
	C171.886337,95.859924 171.807327,95.860451 172.102539,95.802734 
	C172.934830,95.488503 173.471893,95.231979 174.156998,94.887375 
	C174.305023,94.799286 174.644684,94.856934 174.990540,94.992462 
	C181.313309,96.463089 179.536697,91.899994 180.152039,88.833160 
	C180.437363,88.510986 180.549728,88.380569 180.662109,88.250153 
	C183.565186,92.399574 182.452362,96.326065 177.596954,98.291786 
	C173.804382,99.827217 169.886246,101.052513 165.778122,102.502350 
	C169.272842,109.708900 174.746780,116.233200 170.355743,124.956589 
z"/>
<path fill="#1F1914" opacity="1.000000" stroke="none" 
	d="
M64.657883,32.065605 
	C65.832329,33.451157 66.761818,35.090782 68.126190,37.048698 
	C72.078331,46.853527 75.687515,56.307945 79.024773,65.857384 
	C79.598862,67.500107 79.459686,69.703049 78.872261,71.373749 
	C77.767365,74.516228 78.664680,76.634171 81.415092,77.967484 
	C83.487068,78.971901 85.766121,79.549164 87.835899,80.525833 
	C87.488983,81.155174 87.259163,81.575233 86.660194,81.965317 
	C80.424271,79.626884 80.051598,84.917198 78.021149,87.914696 
	C77.832527,87.432861 77.643898,86.951019 77.305313,86.256760 
	C77.991646,83.646942 78.148849,81.841011 76.018677,79.476906 
	C74.343193,77.617409 74.373123,74.106964 73.930656,71.285156 
	C73.541786,68.805122 74.067978,66.086769 73.285271,63.780758 
	C70.737343,56.274033 67.545479,48.982761 65.090439,41.449215 
	C64.172256,38.631657 64.599266,35.375732 64.657883,32.065605 
z"/>
<path fill="#DA3937" opacity="1.000000" stroke="none" 
	d="
M117.594261,33.985638 
	C117.153328,40.195854 120.124184,44.052326 125.802979,46.006565 
	C121.969482,54.525543 115.842133,55.153042 109.965897,47.472626 
	C115.704933,45.108673 116.596382,40.289383 116.158813,34.426872 
	C116.528580,33.984066 116.916107,33.985058 117.594261,33.985638 
z"/>
<path fill="#000F0C" opacity="1.000000" stroke="none" 
	d="
M181.570984,193.604828 
	C180.981979,192.227081 180.112869,190.394470 180.070694,188.543015 
	C179.905563,181.291489 180.019333,174.033951 179.995193,166.778763 
	C179.973587,160.286957 179.733582,160.059616 173.369095,160.008362 
	C171.555374,159.993759 169.741486,159.999146 167.442062,159.681213 
	C166.940643,159.157913 166.924850,158.948776 166.909073,158.739655 
	C171.122742,158.483170 175.345779,157.999329 179.541702,158.172653 
	C180.328934,158.205170 181.615891,160.854248 181.638885,162.312195 
	C181.800934,172.586182 181.692703,182.864410 181.570984,193.604828 
z"/>
<path fill="#261612" opacity="1.000000" stroke="none" 
	d="
M50.007736,161.000107 
	C50.337898,163.275162 50.942829,165.548859 50.954201,167.825500 
	C51.035755,184.156631 51.089470,200.489304 50.924606,216.819199 
	C50.887650,220.479385 51.741043,222.979187 55.834545,224.099075 
	C54.345123,224.606995 52.547905,224.879044 50.361347,224.551605 
	C49.983917,202.968109 49.995827,181.984116 50.007736,161.000107 
z"/>
<path fill="#000E09" opacity="1.000000" stroke="none" 
	d="
M49.973827,160.619873 
	C49.995827,181.984116 49.983917,202.968109 49.970070,224.412567 
	C49.629700,224.210999 48.995464,223.548874 48.995743,222.887009 
	C49.004719,201.702316 49.075069,180.517654 49.456516,159.024536 
	C49.831207,159.223938 49.885563,159.731781 49.973827,160.619873 
z"/>
<path fill="#00100B" opacity="1.000000" stroke="none" 
	d="
M52.005875,159.003738 
	C51.499424,158.958679 50.992977,158.913620 50.104877,158.826355 
	C53.942245,158.508560 58.165874,158.034668 62.376205,158.132599 
	C63.173489,158.151154 64.531593,160.415955 64.580490,161.684799 
	C64.791031,167.149124 64.610275,172.628525 64.465462,178.557816 
	C63.908127,174.812271 63.401798,170.616226 63.032455,166.408157 
	C62.873165,164.593338 62.997318,162.753647 62.640789,160.250580 
	C58.861206,159.385193 55.433540,159.194458 52.005875,159.003738 
z"/>
<path fill="#021613" opacity="1.000000" stroke="none" 
	d="
M166.574005,159.031158 
	C166.924850,158.948776 166.940643,159.157913 166.978546,159.680771 
	C166.823807,166.072647 166.646988,172.150803 166.295578,178.598969 
	C166.160324,172.420212 166.199631,165.871445 166.574005,159.031158 
z"/>
<path fill="#261612" opacity="1.000000" stroke="none" 
	d="
M61.382652,224.032532 
	C61.538506,223.107040 62.074837,222.214417 62.921906,221.213654 
	C62.742809,222.092133 62.252972,223.078766 61.382652,224.032532 
z"/>
<path fill="#1F1813" opacity="1.000000" stroke="none" 
	d="
M177.248962,89.856941 
	C177.461899,89.121521 177.674835,88.386108 178.027100,87.093414 
	C178.869553,86.946205 179.572723,87.356285 180.468994,88.008255 
	C180.549728,88.380569 180.437363,88.510986 179.714111,88.966522 
	C178.538284,89.523071 177.973328,89.754494 177.337280,89.992256 
	C177.266220,89.998604 177.248962,89.856941 177.248962,89.856941 
z"/>
<path fill="#E33937" opacity="1.000000" stroke="none" 
	d="
M66.438889,191.541473 
	C71.912132,186.550690 77.173248,185.819031 81.980019,189.125549 
	C86.650543,192.338348 88.709457,199.650925 86.671181,205.787064 
	C84.885574,211.162567 80.046822,214.347122 74.347336,213.897827 
	C67.387123,213.349136 62.128380,206.190781 63.502167,198.717468 
	C63.939819,196.336655 65.274734,194.120789 66.438889,191.541473 
z"/>
<path fill="#261612" opacity="1.000000" stroke="none" 
	d="
M52.362053,159.194305 
	C55.433540,159.194458 58.861206,159.385193 62.635353,159.781647 
	C59.560635,159.786545 56.139435,159.585724 52.362053,159.194305 
z"/>
<path fill="#E43937" opacity="1.000000" stroke="none" 
	d="
M136.382660,187.287979 
	C143.754456,190.371124 146.898117,195.189835 146.309204,201.978699 
	C145.696198,209.045410 140.650497,213.958710 134.044495,213.921616 
	C127.371605,213.884155 122.463631,208.975189 121.973190,201.847885 
	C121.457672,194.355942 125.926178,188.103302 132.510666,187.201965 
	C133.649643,187.046066 134.831558,187.203857 136.382660,187.287979 
z"/>
<path fill="#F5AB1F" opacity="1.000000" stroke="none" 
	d="
M87.952995,80.316559 
	C85.766121,79.549164 83.487068,78.971901 81.415092,77.967484 
	C78.664680,76.634171 77.767365,74.516228 78.872261,71.373749 
	C79.459686,69.703049 79.598862,67.500107 79.024773,65.857384 
	C75.687515,56.307945 72.078331,46.853527 68.348244,37.080017 
	C68.322304,32.448448 70.524956,32.425766 73.221001,34.690666 
	C76.133347,37.137268 77.939545,40.023151 76.578163,44.282898 
	C75.138710,48.786961 84.163574,59.429897 88.480995,57.999680 
	C90.946854,57.182819 93.220604,54.147556 94.331779,51.572212 
	C94.886032,50.287663 93.117271,47.163578 91.558594,45.963074 
	C87.053246,42.493015 84.216553,38.688850 89.911255,33.365635 
	C89.947556,31.349092 89.922508,29.695904 89.931335,28.042892 
	C89.953743,23.845913 91.888313,21.012474 96.058632,20.133053 
	C99.833405,19.337044 103.870461,21.828281 104.764923,25.888546 
	C105.598633,29.673056 106.205109,32.961884 110.277504,35.067886 
	C113.086899,36.520741 111.921310,39.508663 109.858803,41.376602 
	C108.070564,42.996143 105.953552,44.252674 104.033867,45.632263 
	C105.772247,53.839382 110.153183,56.686474 120.325050,56.352425 
	C126.392220,56.153179 130.852249,50.925732 131.681107,44.040714 
	C128.469543,41.343956 125.399254,39.342766 123.342201,36.585613 
	C122.893242,35.983845 126.063843,32.681606 128.347702,29.554869 
	C127.774017,25.631006 126.887505,19.603039 133.062775,16.769957 
	C135.553757,15.627152 139.922394,15.960553 142.190094,17.481056 
	C147.229813,20.860228 146.653397,26.250654 144.999420,30.282721 
	C147.393311,32.922722 149.281464,35.005009 151.169632,37.087299 
	C148.478760,39.291267 145.787888,41.495235 141.841110,44.727856 
	C141.014053,49.463047 145.078339,56.778793 150.743896,57.996464 
	C156.534714,59.241055 165.681915,53.280830 166.853989,47.216354 
	C167.049637,46.204037 165.878281,44.714767 165.005096,43.746727 
	C161.813583,40.208504 162.461975,37.473545 166.757355,35.838650 
	C168.034134,35.352680 169.118408,34.046600 169.986099,32.888027 
	C170.863281,31.716785 171.025757,29.701345 172.101501,29.055655 
	C174.011322,27.909332 176.374695,27.518606 178.548309,26.811769 
	C179.096115,28.980133 180.071411,31.145344 180.087418,33.317623 
	C180.109192,36.273525 179.596664,39.281288 178.918869,42.174412 
	C178.574844,43.642891 177.613632,45.798359 176.504639,46.106339 
	C172.544937,47.206005 171.704010,50.277702 170.794403,53.489063 
	C169.662491,57.485340 168.495132,61.472107 167.420334,65.483681 
	C167.124969,66.586098 166.777649,67.835136 167.012115,68.893265 
	C168.711365,76.561829 168.465363,77.070259 160.818161,79.794411 
	C160.348618,79.961685 159.865173,80.090012 158.834702,80.556602 
	C157.851746,81.291206 157.422302,81.705650 156.753571,82.054794 
	C156.514313,81.989479 156.022156,81.928307 155.786255,81.651993 
	C132.954422,85.073235 110.418167,84.963272 87.952995,80.316559 
z"/>
<path fill="#F0A921" opacity="1.000000" stroke="none" 
	d="
M168.799255,96.915588 
	C162.490799,98.930016 156.238785,101.168350 149.829712,102.783539 
	C148.427048,103.137016 146.171860,101.580406 144.845093,100.333397 
	C143.605957,99.168755 143.078827,97.246574 142.092194,94.943886 
	C140.494507,87.616234 140.557739,87.709503 147.046341,87.093948 
	C150.405518,86.775276 153.699860,85.773384 157.355377,85.160416 
	C158.125061,85.125648 158.562851,85.010620 159.000656,84.895584 
	C164.862747,86.430145 170.724823,87.964706 176.917938,89.678101 
	C177.248962,89.856941 177.266220,89.998604 177.468155,90.278603 
	C176.661621,91.991379 175.653152,93.424156 174.644684,94.856934 
	C174.644684,94.856934 174.305023,94.799286 173.846832,94.877007 
	C172.861526,95.256638 172.334427,95.558540 171.807327,95.860443 
	C171.807327,95.860451 171.886337,95.859924 171.523605,95.829468 
	C170.373672,96.171204 169.586456,96.543396 168.799255,96.915588 
z"/>
<path fill="#241F11" opacity="1.000000" stroke="none" 
	d="
M158.999603,84.474945 
	C158.562851,85.010620 158.125061,85.125648 157.344055,84.790527 
	C156.998169,83.600288 156.995514,82.860191 156.992844,82.120102 
	C157.422302,81.705650 157.851746,81.291206 158.566010,80.782135 
	C158.900070,81.809776 158.949310,82.932037 158.999603,84.474945 
z"/>
<path fill="#7D3814" opacity="1.000000" stroke="none" 
	d="
M114.418846,98.336861 
	C116.559265,99.490379 119.149719,99.934006 116.713043,103.636642 
	C111.922935,110.915413 112.682861,119.346687 117.931969,124.846260 
	C123.433060,130.609848 132.616028,131.921829 140.075012,127.915726 
	C141.965912,126.900154 143.705704,125.603287 144.349899,125.187561 
	C150.449890,126.684746 155.580612,127.766579 160.576691,129.289978 
	C161.892563,129.691208 163.577881,131.346359 163.757385,132.614777 
	C165.073410,141.914322 159.873886,149.757828 151.301727,153.860260 
	C142.534531,158.056000 133.823929,157.512634 124.800400,155.598557 
	C107.208275,151.866882 92.185287,143.376251 79.044983,131.292999 
	C73.478500,126.174309 71.451317,120.132072 73.976196,112.795326 
	C76.118179,106.571198 78.197929,100.325668 80.814789,94.062439 
	C81.324356,94.035271 81.682304,94.106255 81.945847,94.306473 
	C82.831596,94.711220 83.453804,94.915756 84.180580,95.139664 
	C84.285149,95.159027 84.465851,95.046867 84.667358,95.284721 
	C85.246063,95.681900 85.623260,95.841225 86.239342,96.066635 
	C86.478218,96.132706 86.970039,96.194794 86.970039,96.194794 
	C86.970039,96.194794 87.462784,96.140457 87.753510,96.389099 
	C89.024269,96.796669 90.004288,96.955589 90.959152,97.093948 
	C90.933998,97.073380 90.915703,97.135750 91.175781,97.398651 
	C95.618996,98.338776 99.802147,99.015999 104.328789,99.760361 
	C105.761261,99.760994 106.850243,99.694473 108.054543,99.620911 
	C106.851227,96.964447 105.779190,94.597809 104.241814,91.203857 
	C107.920914,94.035294 110.466850,95.994652 113.275620,98.038345 
	C113.720924,98.146370 113.903404,98.170036 114.158890,98.253296 
	C114.231895,98.312897 114.418846,98.336861 114.418846,98.336861 
z"/>
<path fill="#DC2D2A" opacity="1.000000" stroke="none" 
	d="
M138.859802,99.647171 
	C142.101440,106.138344 145.271088,107.697968 151.618881,106.016808 
	C153.978165,105.391983 156.355286,104.633835 158.760651,104.469643 
	C159.936035,104.389420 161.866348,105.223579 162.301254,106.172577 
	C164.332367,110.604652 165.961258,115.221062 167.738541,120.137459 
	C163.983383,125.405106 159.001282,126.534294 152.936935,123.426369 
	C150.202774,122.025116 147.821671,119.934990 145.509140,118.317436 
	C142.625381,120.498886 139.720001,122.624832 136.893677,124.851151 
	C132.376434,128.409424 128.267242,127.247566 123.991875,124.213669 
	C119.691208,121.161812 116.724113,117.151230 118.242081,112.069298 
	C119.552628,107.681732 122.647186,103.827042 125.492653,99.393944 
	C129.439728,97.897285 132.847229,96.743469 136.286957,95.578735 
	C137.298279,97.177925 138.079041,98.412552 138.859802,99.647171 
z"/>
<path fill="#121411" opacity="1.000000" stroke="none" 
	d="
M138.941315,99.273430 
	C138.079041,98.412552 137.298279,97.177925 136.286957,95.578735 
	C132.847229,96.743469 129.439728,97.897285 125.673615,99.101578 
	C121.966820,98.846657 118.618652,98.541267 114.844666,98.286369 
	C114.418846,98.336861 114.231895,98.312897 114.042259,98.156189 
	C113.582710,97.841476 113.302765,97.826317 113.012794,97.954002 
	C110.466850,95.994652 107.920914,94.035294 104.241814,91.203857 
	C105.779190,94.597809 106.851227,96.964447 108.054543,99.620911 
	C106.850243,99.694473 105.761261,99.760994 104.108444,99.484924 
	C99.334961,98.473480 95.125336,97.804619 90.915703,97.135757 
	C90.915703,97.135750 90.933998,97.073380 90.643776,96.902969 
	C89.389961,96.535187 88.426376,96.337822 87.462784,96.140457 
	C87.462784,96.140457 86.970039,96.194794 86.970039,96.194794 
	C86.970039,96.194794 86.478218,96.132706 85.996338,95.889534 
	C85.164917,95.446533 84.815384,95.246704 84.465851,95.046867 
	C84.465851,95.046867 84.285149,95.159027 83.910400,94.950867 
	C82.917870,94.530556 82.300087,94.318405 81.682304,94.106255 
	C81.682304,94.106255 81.324356,94.035271 81.161858,93.952026 
	C80.014023,92.128067 79.028694,90.387352 78.032257,88.280663 
	C80.051598,84.917198 80.424271,79.626884 86.917572,81.973755 
	C87.715889,82.017784 87.887703,82.023415 88.348419,82.207092 
	C89.750198,82.588463 90.863068,82.791771 92.253403,83.008072 
	C92.715881,83.028534 92.900909,83.036018 93.391739,83.223862 
	C95.121521,83.601379 96.545494,83.798553 98.315735,84.000656 
	C99.123718,84.011238 99.585419,84.016876 100.369316,84.208862 
	C102.444130,84.594353 104.196747,84.793495 106.346115,84.999298 
	C107.536285,85.021477 108.329727,85.036995 109.474854,85.240952 
	C119.517029,85.300545 129.207504,85.171700 139.291382,85.036507 
	C140.471664,85.025017 141.258545,85.019882 142.360870,85.194084 
	C144.758942,84.934418 146.841553,84.495422 149.259293,84.042786 
	C150.041336,84.014084 150.488281,83.999001 151.208832,84.145462 
	C152.631714,83.889389 153.780960,83.471779 155.124985,82.879265 
	C155.553894,82.445671 155.788025,82.186989 156.022156,81.928314 
	C156.022156,81.928307 156.514313,81.989479 156.753571,82.054794 
	C156.995514,82.860191 156.998169,83.600288 157.012177,84.710266 
	C153.699860,85.773384 150.405518,86.775276 147.046341,87.093948 
	C140.557739,87.709503 140.494507,87.616234 141.949081,94.616379 
	C140.975693,96.301765 139.999268,97.600731 138.941315,99.273430 
z"/>
<path fill="#1D1913" opacity="1.000000" stroke="none" 
	d="
M174.990540,94.992462 
	C175.653152,93.424156 176.661621,91.991379 177.539215,90.272255 
	C177.973328,89.754494 178.538284,89.523071 179.541168,89.158287 
	C179.536697,91.899994 181.313309,96.463089 174.990540,94.992462 
z"/>
<path fill="#1D1913" opacity="1.000000" stroke="none" 
	d="
M169.075287,96.958694 
	C169.586456,96.543396 170.373672,96.171204 171.497437,95.799873 
	C171.006454,96.201088 170.178894,96.601440 169.075287,96.958694 
z"/>
<path fill="#1D1913" opacity="1.000000" stroke="none" 
	d="
M172.102539,95.802734 
	C172.334427,95.558540 172.861526,95.256638 173.698807,94.965088 
	C173.471893,95.231979 172.934830,95.488503 172.102539,95.802734 
z"/>
<path fill="#0C0B14" opacity="1.000000" stroke="none" 
	d="
M100.047127,84.022522 
	C99.585419,84.016876 99.123718,84.011238 98.008179,83.815216 
	C95.931541,83.431068 94.508736,83.237289 93.085930,83.043518 
	C92.900909,83.036018 92.715881,83.028534 91.966049,82.823174 
	C90.287323,82.426544 89.173424,82.227791 88.059517,82.029037 
	C87.887703,82.023415 87.715889,82.017784 87.286713,82.003723 
	C87.259163,81.575233 87.488983,81.155174 87.835899,80.525833 
	C110.418167,84.963272 132.954422,85.073235 155.786255,81.651993 
	C155.788025,82.186989 155.553894,82.445671 154.778641,82.882797 
	C153.136765,83.368797 152.035980,83.676353 150.935211,83.983917 
	C150.488281,83.999001 150.041336,84.014084 148.865723,84.036957 
	C146.106506,84.368088 144.075974,84.691422 142.045425,85.014755 
	C141.258545,85.019882 140.471664,85.025017 138.834412,85.033920 
	C128.363739,85.042625 118.743446,85.047569 109.123161,85.052513 
	C108.329727,85.036995 107.536285,85.021477 106.024124,84.813599 
	C103.552643,84.421669 101.799881,84.222099 100.047127,84.022522 
z"/>
<path fill="#181612" opacity="1.000000" stroke="none" 
	d="
M91.175781,97.398659 
	C95.125336,97.804619 99.334961,98.473480 103.764938,99.417778 
	C99.802147,99.015999 95.618996,98.338776 91.175781,97.398659 
z"/>
<path fill="#181612" opacity="1.000000" stroke="none" 
	d="
M87.753510,96.389099 
	C88.426376,96.337822 89.389961,96.535187 90.668930,96.923531 
	C90.004288,96.955589 89.024269,96.796669 87.753510,96.389099 
z"/>
<path fill="#181612" opacity="1.000000" stroke="none" 
	d="
M81.945847,94.306473 
	C82.300087,94.318405 82.917870,94.530556 83.805832,94.931496 
	C83.453804,94.915756 82.831596,94.711220 81.945847,94.306473 
z"/>
<path fill="#181612" opacity="1.000000" stroke="none" 
	d="
M113.275620,98.038345 
	C113.302765,97.826317 113.582710,97.841476 113.969254,98.096588 
	C113.903404,98.170036 113.720924,98.146370 113.275620,98.038345 
z"/>
<path fill="#181612" opacity="1.000000" stroke="none" 
	d="
M84.667358,95.284721 
	C84.815384,95.246704 85.164917,95.446533 85.757462,95.823456 
	C85.623260,95.841225 85.246063,95.681900 84.667358,95.284721 
z"/>
<path fill="#241F11" opacity="1.000000" stroke="none" 
	d="
M109.474854,85.240952 
	C118.743446,85.047569 128.363739,85.042625 138.441010,85.040276 
	C129.207504,85.171700 119.517029,85.300545 109.474854,85.240952 
z"/>
<path fill="#241F11" opacity="1.000000" stroke="none" 
	d="
M142.360870,85.194092 
	C144.075974,84.691422 146.106506,84.368088 148.530609,84.050583 
	C146.841553,84.495422 144.758942,84.934418 142.360870,85.194092 
z"/>
<path fill="#241F11" opacity="1.000000" stroke="none" 
	d="
M151.208832,84.145454 
	C152.035980,83.676353 153.136765,83.368797 154.583878,83.057709 
	C153.780960,83.471779 152.631714,83.889389 151.208832,84.145454 
z"/>
<path fill="#1F1914" opacity="1.000000" stroke="none" 
	d="
M100.369316,84.208870 
	C101.799881,84.222099 103.552643,84.421669 105.627380,84.806938 
	C104.196747,84.793495 102.444130,84.594353 100.369316,84.208870 
z"/>
<path fill="#1F1914" opacity="1.000000" stroke="none" 
	d="
M93.391739,83.223862 
	C94.508736,83.237289 95.931541,83.431068 97.661903,83.810287 
	C96.545494,83.798553 95.121521,83.601379 93.391739,83.223862 
z"/>
<path fill="#1F1914" opacity="1.000000" stroke="none" 
	d="
M88.348419,82.207092 
	C89.173424,82.227791 90.287323,82.426544 91.688583,82.810181 
	C90.863068,82.791771 89.750198,82.588463 88.348419,82.207092 
z"/>
</svg>