<svg id="sw-js-blob-svg" viewBox="0 0 100 100" xmlns="http://www.w3.org/2000/svg">                    <defs>                         <linearGradient id="sw-gradient" x1="0" x2="1" y1="1" y2="0">                            <stop id="stop1" stop-color="rgba(176.522, 106.129, 72.814, 1)" offset="0%"></stop>                            <stop id="stop2" stop-color="rgba(255, 158.795, 0, 1)" offset="100%"></stop>                        </linearGradient>                    </defs>                <path fill="url(#sw-gradient)" d="M18.2,-34.8C21.5,-29.6,20.7,-20.5,24,-14.1C27.2,-7.7,34.5,-3.8,38,2C41.5,7.8,41.1,15.7,36.1,19.1C31.1,22.5,21.5,21.5,14.7,25.2C7.9,29,4,37.4,-0.3,37.9C-4.5,38.4,-9.1,31,-14.2,26.3C-19.4,21.7,-25.2,19.8,-28.7,15.9C-32.2,11.9,-33.4,6,-33.3,0.1C-33.2,-5.8,-31.8,-11.7,-29.3,-17.5C-26.9,-23.2,-23.4,-28.9,-18.4,-33.1C-13.3,-37.3,-6.7,-39.9,0.4,-40.6C7.4,-41.3,14.9,-39.9,18.2,-34.8Z" width="100%" height="100%" transform="translate(50 50)" stroke-width="0" style="transition: 0.3s;" stroke="url(#sw-gradient)"></path>              </svg>